<?xml version="1.0" standalone="no"?>
<!DOCTYPE svg PUBLIC "-//W3C//DTD SVG 20010904//EN"
 "http://www.w3.org/TR/2001/REC-SVG-20010904/DTD/svg10.dtd">
<svg version="1.0" xmlns="http://www.w3.org/2000/svg"
 width="1139.000000pt" height="1139.000000pt" viewBox="0 0 1139.000000 1139.000000"
 preserveAspectRatio="xMidYMid meet">
<metadata>
Created by potrace 1.11, written by Peter Selinger 2001-2013
</metadata>
<g transform="translate(0.000000,1139.000000) scale(0.100000,-0.100000)"
fill="#000000" stroke="none">
<path d="M945 11378 c-7 -23 2 -8911 9 -8953 40 -230 80 -363 165 -540 93
-193 210 -357 370 -515 244 -241 545 -413 881 -504 52 -14 110 -28 129 -31 19
-3 37 -8 41 -10 3 -2 38 -7 76 -10 38 -4 74 -10 79 -13 6 -4 286 -7 622 -8
536 -2 804 -8 823 -19 3 -1 36 -6 75 -10 38 -4 72 -8 75 -10 3 -2 23 -6 44 -9
111 -18 336 -85 476 -143 207 -85 481 -244 612 -355 15 -13 41 -34 59 -48 17
-13 71 -63 119 -110 l88 -85 74 73 c348 351 898 622 1393 688 28 3 58 8 68 10
62 11 294 16 835 18 340 1 622 4 627 7 6 4 33 9 60 13 164 19 428 95 581 167
335 159 614 399 817 702 54 81 153 279 186 372 47 135 82 296 97 450 5 51 10
6206 5 6293 -1 9 -92 12 -420 12 l-418 0 -1 -3117 c0 -2845 -1 -3126 -16
-3205 -37 -197 -130 -369 -278 -516 -63 -62 -188 -162 -202 -162 -3 0 -27 -13
-53 -28 -94 -55 -250 -109 -403 -138 -19 -3 -296 -7 -615 -9 -521 -2 -776 -8
-846 -20 -22 -3 -47 -6 -166 -21 -27 -3 -55 -7 -63 -9 -8 -2 -31 -7 -50 -10
-79 -13 -322 -76 -425 -110 -255 -84 -535 -214 -743 -346 -44 -28 -47 -28 -71
-12 -122 80 -333 190 -506 263 -92 39 -357 131 -415 144 -14 3 -83 19 -155 36
-71 16 -152 32 -180 36 -27 3 -52 7 -55 9 -3 2 -34 6 -70 10 -36 4 -73 9 -84
11 -56 10 -344 17 -851 18 -501 2 -581 4 -659 20 -435 87 -764 376 -877 771
l-24 80 -2 4023 c-3 3836 -2 4022 14 4023 10 0 1376 1 3036 1 l3017 1 0 419 0
418 -3450 0 c-2752 0 -3451 -3 -3455 -12z"/>
<path d="M8270 11343 c-1 -72 -1 -745 -1 -769 1 -21 3 -21 356 -21 195 0 357
-2 360 -4 4 -4 -217 -182 -334 -268 -25 -19 -51 -40 -57 -45 -6 -6 -26 -22
-44 -36 -19 -14 -48 -37 -64 -51 -17 -14 -281 -221 -586 -460 -305 -238 -562
-439 -570 -446 -8 -7 -64 -51 -125 -98 -60 -47 -117 -91 -125 -98 -8 -7 -98
-77 -200 -157 -102 -80 -192 -150 -200 -157 -12 -9 -423 -332 -545 -427 -16
-13 -120 -95 -230 -181 -110 -86 -205 -159 -212 -162 -7 -3 -32 11 -55 29 -24
19 -200 158 -393 309 -192 151 -357 279 -365 286 -8 6 -74 58 -147 115 -72 57
-200 157 -285 223 -84 66 -158 124 -165 130 -6 5 -66 53 -133 105 -67 52 -220
172 -339 265 -119 94 -232 183 -252 198 l-36 27 -134 -105 c-169 -133 -144
-114 -464 -364 -148 -116 -277 -217 -285 -224 -11 -9 -404 -317 -439 -344 -7
-5 -7 -1044 0 -1055 5 -8 227 161 549 417 36 28 121 95 190 149 164 129 160
126 340 266 85 67 165 130 177 140 12 10 32 26 46 34 25 17 -13 46 642 -470
36 -28 187 -146 234 -183 72 -55 182 -142 321 -252 80 -63 161 -126 181 -141
19 -14 46 -35 60 -47 57 -49 739 -581 745 -581 5 0 135 99 194 147 8 7 85 67
170 134 85 67 169 132 185 145 17 13 276 216 577 452 300 236 561 440 580 455
18 14 164 129 324 254 160 125 308 242 329 258 66 52 151 119 186 146 49 39
339 266 374 294 51 40 468 366 550 430 43 33 85 67 95 75 10 8 52 42 95 75
168 130 230 180 237 190 10 13 9 32 11 -375 l2 -345 418 0 417 0 1 40 c0 22 1
508 1 1080 l1 1040 -1082 3 -1081 2 0 -47z"/>
<path d="M3105 4991 l0 -1898 420 1 420 1 0 1898 0 1897 -420 0 -420 0 0
-1899z"/>
<path d="M7430 4992 l0 -1899 420 0 420 0 0 1898 0 1899 -420 0 -420 0 0
-1898z"/>
<path d="M5270 6018 c-1 -4 -1 -3657 0 -3735 l0 -61 419 0 418 1 1 1898 0
1899 -419 0 c-231 0 -419 -1 -419 -2z"/>
</g>
</svg>
